<?xml version="1.0" encoding="UTF-8"?>
<svg version="1.1" xmlns="http://www.w3.org/2000/svg" width="526" height="276">
<path d="M0 0 C173.58 0 347.16 0 526 0 C526 91.08 526 182.16 526 276 C352.42 276 178.84 276 0 276 C0 184.92 0 93.84 0 0 Z " fill="#FEFDFD" transform="translate(0,0)"/>
<path d="M0 0 C8.91 -0.04125 17.82 -0.0825 27 -0.125 C29.77792969 -0.14320801 32.55585938 -0.16141602 35.41796875 -0.18017578 C78.47271455 -0.34781269 78.47271455 -0.34781269 90.640625 11.3984375 C98.6600121 20.84656598 99.14164109 32.36423231 99.23828125 44.16796875 C99.246353 45.12463943 99.25442474 46.08131012 99.26274109 47.06697083 C99.27650416 49.08312205 99.28726068 51.09929581 99.29516602 53.11547852 C99.30667189 55.15461168 99.32710153 57.19371506 99.35668945 59.23266602 C99.71370032 83.89832757 99.71370032 83.89832757 93 95.4375 C79.29996058 107.139617 62.94053136 106.3013138 46 106 C46 106.66 46 107.32 46 108 C30.82 108 15.64 108 0 108 C0 72.36 0 36.72 0 0 Z " fill="#020202" transform="translate(346,102)"/>
<path d="M0 0 C1.05960937 -0.01611328 2.11921875 -0.03222656 3.2109375 -0.04882812 C17.5685003 -0.05762565 32.07780658 4.65082898 42.6875 14.625 C58.56368894 32.20957291 54.88212266 58.45707417 54.625 80.3125 C39.445 80.3125 24.265 80.3125 8.625 80.3125 C8.1875 58.0625 8.1875 58.0625 8.05688477 51.05371094 C8.01875453 49.21809139 7.98028478 47.38247885 7.94140625 45.546875 C7.92493042 44.59570801 7.90845459 43.64454102 7.89147949 42.66455078 C7.87129761 41.75141113 7.85111572 40.83827148 7.83032227 39.89746094 C7.80700584 38.71165436 7.80700584 38.71165436 7.78321838 37.50189209 C7.62642547 35.33222541 7.21884319 33.40113467 6.625 31.3125 C4.83366022 31.25858007 3.04186101 31.21974429 1.25 31.1875 C0.25226563 31.16429687 -0.74546875 31.14109375 -1.7734375 31.1171875 C-4.53762173 31.04033152 -4.53762173 31.04033152 -6.375 33.3125 C-7.75161257 41.56162454 -7.59661558 49.94244905 -7.69140625 58.28515625 C-7.71201543 59.81929534 -7.73301282 61.35342926 -7.75437927 62.88755798 C-7.80919118 66.89708225 -7.85877816 70.90665423 -7.90722656 74.91625977 C-7.9666473 79.74227791 -8.03264702 84.56821016 -8.09752655 89.39415741 C-8.19502056 96.7002185 -8.28422823 104.00633838 -8.375 111.3125 C-23.555 111.3125 -38.735 111.3125 -54.375 111.3125 C-54.39604182 103.29556824 -54.41606938 95.27873808 -54.42675018 87.26180267 C-54.43200347 83.5274689 -54.43900912 79.7931583 -54.45043945 76.05883789 C-54.46140357 72.45376167 -54.46730512 68.84870773 -54.46987724 65.2436161 C-54.47170736 63.87669843 -54.47528036 62.5097818 -54.48073006 61.14287376 C-54.550533 42.88812804 -53.46460992 27.80260189 -40.859375 13.60546875 C-29.63658705 2.86446716 -14.91467884 -0.04503224 0 0 Z " fill="#020202" transform="translate(268.375,98.6875)"/>
<path d="M0 0 C15.18 0 30.36 0 46 0 C46.375 12.9375 46.375 12.9375 46.47802734 16.96069336 C46.69648572 23.54854795 47.13110808 29.66055726 49 36 C52.04983996 37.52491998 54.6423369 37.23562548 58 37 C60.08656411 35.60895726 60.77396755 34.68761977 61.55053711 32.32519531 C62.15022813 29.22282851 62.22272583 26.2052436 62.31640625 23.046875 C62.35451416 21.83870117 62.39262207 20.63052734 62.43188477 19.38574219 C62.47498779 17.85594727 62.51809082 16.32615234 62.5625 14.75 C62.706875 9.8825 62.85125 5.015 63 0 C78.18 0 93.36 0 109 0 C109 41.2 109 41.2 98.5 52.75 C96 55 96 55 93 56 C92.67 56.99 92.34 57.98 92 59 C84.97860558 63.38045352 77.37636734 63.60197597 69.34375 63.56640625 C68.16083374 63.57260483 66.97791748 63.57880341 65.75915527 63.58518982 C63.27157407 63.59225704 60.78394527 63.58916859 58.29638672 63.57641602 C54.51050112 63.56253849 50.72708426 63.59668775 46.94140625 63.63476562 C44.51302023 63.63571687 42.08463115 63.6338577 39.65625 63.62890625 C38.53617554 63.64216446 37.41610107 63.65542267 36.26208496 63.66908264 C27.13185719 63.56194924 19.25704973 60.98824962 12.6875 54.375 C-0.47187647 40.1543835 0 18.037941 0 0 Z " fill="#D93732" transform="translate(214,213)"/>
<path d="M0 0 C0.33 0 0.66 0 1 0 C1 66 1 132 1 200 C-22.76 200 -46.52 200 -71 200 C-69.02 197.36 -67.04 194.72 -65 192 C-49.13053672 169.39421447 -37.59553244 145.03030904 -28.95239258 118.79443359 C-28.21698339 116.6366552 -27.44703517 114.49062914 -26.6628418 112.35009766 C-22.57365262 101.183595 -19.38813792 89.88968458 -16.4375 78.375 C-16.19810699 77.44880859 -15.95871399 76.52261719 -15.71206665 75.56835938 C-9.24826348 50.55462359 -4.3538054 25.4531896 0 0 Z " fill="#010101" transform="translate(525,13)"/>
<path d="M0 0 C15.84 0 31.68 0 48 0 C46.8509655 14.9374485 46.8509655 14.9374485 45.87890625 22.0546875 C45.77408432 22.84416779 45.66926239 23.63364807 45.56126404 24.447052 C45.23168637 26.92349533 44.89722559 29.39924785 44.5625 31.875 C44.34276948 33.51948726 44.12336697 35.16401838 43.90429688 36.80859375 C43.10474371 42.80159302 42.30069412 48.79396107 41.48413086 54.78466797 C40.50929119 61.98265204 39.60609898 69.18592961 38.74609375 76.3984375 C38.58549217 77.74233047 38.58549217 77.74233047 38.42164612 79.1133728 C37.97926747 82.81911458 37.53740497 86.52489955 37.10180664 90.23144531 C36.77878917 92.97508821 36.45041735 95.71804542 36.12109375 98.4609375 C35.9741935 99.72784927 35.9741935 99.72784927 35.82432556 101.02035522 C35.11364926 106.88635074 35.11364926 106.88635074 34 108 C32.61839885 108.0927833 31.23211962 108.11747043 29.84741211 108.11352539 C28.96657455 108.11344986 28.085737 108.11337433 27.1782074 108.11329651 C26.22092239 108.10813522 25.26363739 108.10297394 24.27734375 108.09765625 C23.30213272 108.0962413 22.32692169 108.09482635 21.32215881 108.09336853 C18.19390857 108.08775133 15.06572877 108.07519593 11.9375 108.0625 C9.82226666 108.05748722 7.70703219 108.05292393 5.59179688 108.04882812 C0.39450704 108.03777631 -4.80274145 108.02102146 -10 108 C-6.36028507 57.22535438 -6.36028507 57.22535438 -3.875 32.625 C-3.75493591 31.42689697 -3.75493591 31.42689697 -3.63244629 30.20458984 C-2.61351418 20.10241077 -1.34295829 10.07218715 0 0 Z " fill="#030303" transform="translate(151,102)"/>
<path d="M0 0 C15.84 0 31.68 0 48 0 C51.33461084 25.66874854 54.45994646 51.29290558 56.875 77.0625 C57.03843399 78.79154068 57.03843399 78.79154068 57.20516968 80.55551147 C57.51394772 83.83997386 57.81703894 87.124895 58.1171875 90.41015625 C58.20751755 91.38109222 58.2978476 92.3520282 58.39091492 93.35238647 C58.47186905 94.25969513 58.55282318 95.16700378 58.63623047 96.10180664 C58.7069577 96.88302383 58.77768494 97.66424103 58.85055542 98.46913147 C59.03784748 101.6409533 59 104.8226533 59 108 C44.81 108 30.62 108 16 108 C14.2609227 99.30461348 12.57899857 90.87687731 11.5 82.125 C10.69872136 75.6850939 9.72081498 69.30029422 8.56640625 62.9140625 C6.96882438 54.05495276 5.67718949 45.16521377 4.4375 36.25 C4.12349014 34.00887925 3.80860878 31.76788388 3.49307251 29.52697754 C3.28864742 28.07453338 3.08499893 26.62197967 2.88217163 25.16931152 C2.11511102 19.70782104 1.25894233 14.26337647 0.35180664 8.82324219 C0 6 0 6 0 0 Z " fill="#030303" transform="translate(80,102)"/>
<path d="M0 0 C1.9316971 2.89754565 3.33212769 5.70986163 4.80078125 8.86328125 C17.62253235 36.10765162 32.26240567 62.07454679 52 85 C52.96709634 86.15024317 53.93317554 87.30134202 54.8984375 88.453125 C60.1754266 94.71714675 65.5346546 100.74866692 71.453125 106.42578125 C73 108 73 108 73 109 C48.91 109 24.82 109 0 109 C0 73.03 0 37.06 0 0 Z " fill="#020202" transform="translate(1,104)"/>
<path d="M0 0 C29 0 58 0 87 0 C86.37765666 10.35259955 85.28868131 20.58881094 84 30.875 C83.81998786 32.3332933 83.64029917 33.79162656 83.4609375 35.25 C82.97822012 39.16720274 82.48998794 43.08369933 82 47 C81.81378703 48.48974421 81.62758896 49.97949029 81.44140625 51.46923828 C81.29574219 52.63438965 81.15007812 53.79954102 81 55 C76.48185228 56.50604924 73.21579363 54.74480654 68.8125 53.25 C67.88920898 52.93853027 66.96591797 52.62706055 66.01464844 52.30615234 C15.0487164 34.53547333 15.0487164 34.53547333 2 19 C1.47583008 16.9152832 1.47583008 16.9152832 1.26953125 14.55078125 C1.18896484 13.70322266 1.10839844 12.85566406 1.02539062 11.98242188 C0.95513672 11.10134766 0.88488281 10.22027344 0.8125 9.3125 C0.73064453 8.41982422 0.64878906 7.52714844 0.56445312 6.60742188 C0.36429896 4.40572602 0.17663742 2.20368662 0 0 Z " fill="#D73834" transform="translate(97,213)"/>
<path d="M0 0 C15.18 0 30.36 0 46 0 C46 9.9 46 19.8 46 30 C34.52933295 36.12238057 23.1486769 42.14537488 11.1875 47.25 C10.29329346 47.63212646 9.39908691 48.01425293 8.4777832 48.40795898 C2.28437336 51 2.28437336 51 0 51 C0 34.17 0 17.34 0 0 Z " fill="#D53935" transform="translate(346,213)"/>
<path d="M0 0 C5.09913522 1.45014046 9.10631771 3.73779007 13.5625 6.5 C30.01995751 16.38819056 47.3980237 23.5766232 65.42822266 30.06982422 C68.96413614 31.34871451 72.48227062 32.67200512 76 34 C76 34.99 76 35.98 76 37 C52.9 37 29.8 37 6 37 C2.54898649 18.59459459 2.54898649 18.59459459 1.3125 9.5 C1.18294922 8.57058594 1.05339844 7.64117187 0.91992188 6.68359375 C0.60991966 4.45617044 0.30324559 2.22835128 0 0 Z " fill="#040303" transform="translate(100,239)"/>
<path d="M0 0 C0 9.57 0 19.14 0 29 C-15.18 29 -30.36 29 -46 29 C-46 26.36 -46 23.72 -46 21 C-45.23816406 20.68546875 -44.47632813 20.3709375 -43.69140625 20.046875 C-42.65886719 19.61890625 -41.62632812 19.1909375 -40.5625 18.75 C-39.55316406 18.33234375 -38.54382813 17.9146875 -37.50390625 17.484375 C-30.00511078 14.30762776 -22.61174914 10.91877372 -15.25 7.4375 C-14.42628906 7.05142578 -13.60257812 6.66535156 -12.75390625 6.26757812 C-9.33263361 4.65059983 -3.54231266 0 0 0 Z " fill="#040303" transform="translate(392,247)"/>
<path d="M0 0 C9 0 9 0 12 2.25 C16.31540405 8.18368057 15.22031208 15.30927441 15.25 22.375 C15.270625 23.59445313 15.29125 24.81390625 15.3125 26.0703125 C15.31765625 27.25109375 15.3228125 28.431875 15.328125 29.6484375 C15.34214355 31.25984619 15.34214355 31.25984619 15.35644531 32.90380859 C14.82563363 37.51459884 13.33128076 40.89059936 9.75 43.875 C7 45 7 45 0 45 C0 30.15 0 15.3 0 0 Z " fill="#F5F5F5" transform="translate(392,133)"/>
<path d="M0 0 C5.23031522 2.50200175 10.33702564 5.16637457 15.35791016 8.06298828 C31.85048115 17.55146967 48.85187809 25.06922435 66.85961914 31.19726562 C68.99388871 31.997708 70.98160757 32.94398762 73 34 C71.35 34 69.7 34 68 34 C68 34.66 68 35.32 68 36 C43.01885605 29.15420575 20.17710731 17.15520645 -2 4 C-1.34 2.68 -0.68 1.36 0 0 Z " fill="#F1E7E8" transform="translate(102,235)"/>
<path d="M0 0 C15.18 0 30.36 0 46 0 C46 29.28571429 46 29.28571429 42 43 C41.67 43 41.34 43 41 43 C41.14166357 41.08302063 41.28849584 39.16642277 41.4375 37.25 C41.51871094 36.18265625 41.59992188 35.1153125 41.68359375 34.015625 C42 31 42 31 42.5 29.17773438 C43.11995414 26.47754351 43.21752384 23.90933248 43.31640625 21.140625 C43.35451416 20.13547852 43.39262207 19.13033203 43.43188477 18.09472656 C43.47498779 16.8259668 43.51809082 15.55720703 43.5625 14.25 C43.706875 10.2075 43.85125 6.165 44 2 C30.14 2 16.28 2 2 2 C2.03944477 10.00235393 2.03944477 10.00235393 2.09008789 18.00463867 C2.09258545 19.0072876 2.09508301 20.00993652 2.09765625 21.04296875 C2.10289307 22.06414795 2.10812988 23.08532715 2.11352539 24.13745117 C2.00519467 26.86901616 1.61706868 29.34169374 1 32 C0.67 32 0.34 32 0 32 C0 21.44 0 10.88 0 0 Z " fill="#BE5051" transform="translate(277,213)"/>
<path d="M0 0 C0.66 0.33 1.32 0.66 2 1 C1.63963197 3.51958696 1.4093709 4.6803986 -0.63549805 6.27685547 C-1.68797729 6.81656982 -1.68797729 6.81656982 -2.76171875 7.3671875 C-3.54442139 7.77509521 -4.32712402 8.18300293 -5.13354492 8.60327148 C-6.39775269 9.2327771 -6.39775269 9.2327771 -7.6875 9.875 C-8.97394409 10.53254272 -8.97394409 10.53254272 -10.28637695 11.20336914 C-17.39538359 14.79596471 -24.60313177 18.04125271 -32 21 C-33.25296875 21.5259375 -33.25296875 21.5259375 -34.53125 22.0625 C-39.61887255 24.12704248 -39.61887255 24.12704248 -43 23 C-42 20 -42 20 -39.64599609 18.68481445 C-38.61555176 18.2487085 -37.58510742 17.81260254 -36.5234375 17.36328125 C-35.38382568 16.87174561 -34.24421387 16.38020996 -33.07006836 15.8737793 C-32.46581024 15.61849457 -31.86155212 15.36320984 -31.23898315 15.10018921 C-21.39689512 10.94108159 -11.80175589 6.55289771 -2.52734375 1.23046875 C-1.27630859 0.62138672 -1.27630859 0.62138672 0 0 Z " fill="#F0DDDD" transform="translate(390,243)"/>
<path d="M0 0 C0.66 0 1.32 0 2 0 C2 0.66 2 1.32 2 2 C4.65696758 2.88565586 6.28190083 3.1450262 9.01245117 3.20532227 C9.81305466 3.22526749 10.61365814 3.24521271 11.43852234 3.26576233 C12.29798965 3.28247482 13.15745697 3.29918732 14.04296875 3.31640625 C14.9265657 3.33718735 15.81016266 3.35796844 16.72053528 3.37937927 C19.54277785 3.44475754 22.36511335 3.50370528 25.1875 3.5625 C27.10092106 3.60569637 29.01433273 3.64931102 30.92773438 3.69335938 C35.61839437 3.80042695 40.30914783 3.90172752 45 4 C45 4.33 45 4.66 45 5 C30.81 5 16.62 5 2 5 C1.67 5.99 1.34 6.98 1 8 C0.505 7.01 0.505 7.01 0 6 C-13.86 5.67 -27.72 5.34 -42 5 C-42.33 4.01 -42.66 3.02 -43 2 C-28.81 2 -14.62 2 0 2 C0 1.34 0 0.68 0 0 Z " fill="#FCF2F2" transform="translate(139,208)"/>
<path d="M0 0 C15.18 0 30.36 0 46 0 C46.375 12.9375 46.375 12.9375 46.47802734 16.96069336 C46.69715569 23.56875164 47.30306524 29.60545318 49 36 C51.97 36.66 54.94 37.32 58 38 C58 38.66 58 39.32 58 40 C53.37952789 40.32235852 50.61222353 40.01018628 47 37 C45.14396312 32.58518619 44.76254807 28.83206862 44.8046875 24.0703125 C44.80968262 22.90773926 44.81467773 21.74516602 44.81982422 20.54736328 C44.83803223 19.0879834 44.85624023 17.62860352 44.875 16.125 C44.91625 11.46375 44.9575 6.8025 45 2 C30.81 2 16.62 2 2 2 C2 7.94 2 13.88 2 20 C1.67 20 1.34 20 1 20 C-0.28146824 13.11210821 0 7.33329772 0 0 Z " fill="#BB4646" transform="translate(214,213)"/>
<path d="M0 0 C1.2328624 0.01381462 1.2328624 0.01381462 2.4906311 0.02790833 C3.34017365 0.02740982 4.18971619 0.02691132 5.06500244 0.02639771 C6.86217588 0.02873791 8.65935261 0.03846332 10.45645142 0.05500793 C13.19991583 0.07854137 15.94240429 0.07557585 18.6859436 0.06892395 C20.43334521 0.07450296 22.18074272 0.08161424 23.9281311 0.09040833 C25.15492081 0.08904121 25.15492081 0.08904121 26.40649414 0.08764648 C27.17724274 0.0971785 27.94799133 0.10671051 28.74209595 0.11653137 C29.41477509 0.12113876 30.08745422 0.12574615 30.78051758 0.13049316 C32.8421936 0.39118958 32.8421936 0.39118958 37.8421936 2.39118958 C37.8421936 12.29118958 37.8421936 22.19118958 37.8421936 32.39118958 C37.5121936 32.39118958 37.1821936 32.39118958 36.8421936 32.39118958 C36.8421936 22.82118958 36.8421936 13.25118958 36.8421936 3.39118958 C21.6621936 3.39118958 6.4821936 3.39118958 -9.1578064 3.39118958 C-5.76974868 0.00313186 -4.59562926 0.03744578 0 0 Z " fill="#FCF3F4" transform="translate(355.1578063964844,209.6088104248047)"/>
<path d="M0 0 C14.19 0 28.38 0 43 0 C41.875 15.75 41.875 15.75 41.24609375 21.0546875 C41.11396484 22.18261719 40.98183594 23.31054688 40.84570312 24.47265625 C40.71099609 25.59542969 40.57628906 26.71820313 40.4375 27.875 C40.22963867 29.64037109 40.22963867 29.64037109 40.01757812 31.44140625 C39.68122369 34.29461973 39.34200883 37.14745978 39 40 C38.67 40 38.34 40 38 40 C37.97111854 36.68751813 37.95324201 33.37506833 37.9375 30.0625 C37.92912109 29.11697266 37.92074219 28.17144531 37.91210938 27.19726562 C37.90888672 26.29814453 37.90566406 25.39902344 37.90234375 24.47265625 C37.89710693 23.64000244 37.89187012 22.80734863 37.88647461 21.94946289 C38 20 38 20 39 19 C39.21017016 16.69104731 39.36839941 14.37726031 39.5 12.0625 C39.88978186 5.22043628 39.88978186 5.22043628 41 3 C21.2 2.505 21.2 2.505 1 2 C0.67 2.66 0.34 3.32 0 4 C0 2.68 0 1.36 0 0 Z " fill="#B74646" transform="translate(141,213)"/>
<path d="M0 0 C9.42995928 2.70104361 18.70569001 5.87152311 28 9 C28 9.33 28 9.66 28 10 C26.35 10 24.7 10 23 10 C23 10.66 23 11.32 23 12 C21.41531323 11.54636829 19.83230076 11.08688548 18.25 10.625 C17.36828125 10.36976563 16.4865625 10.11453125 15.578125 9.8515625 C13.23919428 9.0790066 11.16557438 8.16374324 9 7 C9 6.34 9 5.68 9 5 C7.35 4.67 5.7 4.34 4 4 C4 3.34 4 2.68 4 2 C2.68 2 1.36 2 0 2 C0 1.34 0 0.68 0 0 Z " fill="#F3E7E8" transform="translate(147,259)"/>
<path d="M0 0 C-0.4375 2.25 -0.4375 2.25 -2 5 C-5.8255295 7.30267448 -9.50810806 9 -14 9 C-13.67 8.01 -13.34 7.02 -13 6 C-12.01 6 -11.02 6 -10 6 C-9.67 5.01 -9.34 4.02 -9 3 C-5.78715662 1.11420063 -3.75366417 0 0 0 Z " fill="#F3E0E2" transform="translate(378,251)"/>
<path d="M0 0 C0 0.99 0 1.98 0 3 C-0.639375 3.268125 -1.27875 3.53625 -1.9375 3.8125 C-4.33131686 4.88667752 -4.33131686 4.88667752 -5 8 C-7.109375 9.16796875 -7.109375 9.16796875 -9.75 10.1875 C-10.61109375 10.53167969 -11.4721875 10.87585938 -12.359375 11.23046875 C-15.04870098 12.01419245 -17.21601956 12.14520761 -20 12 C-17.4345406 9.4345406 -15.52313332 9.45953913 -12 9 C-12 8.34 -12 7.68 -12 7 C-10.68 7 -9.36 7 -8 7 C-8 6.34 -8 5.68 -8 5 C-7.05125 4.54625 -6.1025 4.0925 -5.125 3.625 C-1.99686321 2.19761746 -1.99686321 2.19761746 0 0 Z " fill="#BD5E5D" transform="translate(311,264)"/>
<path d="M0 0 C0.66 0 1.32 0 2 0 C1.49656013 7.02673515 0.95812032 14.01940909 0 21 C-0.33 21 -0.66 21 -1 21 C-1.02888146 17.68751813 -1.04675799 14.37506833 -1.0625 11.0625 C-1.07087891 10.11697266 -1.07925781 9.17144531 -1.08789062 8.19726562 C-1.09111328 7.29814453 -1.09433594 6.39902344 -1.09765625 5.47265625 C-1.10289307 4.64000244 -1.10812988 3.80734863 -1.11352539 2.94946289 C-1 1 -1 1 0 0 Z " fill="#C04B4A" transform="translate(180,232)"/>
<path d="M0 0 C2.64 0.99 5.28 1.98 8 3 C7.01 3.495 7.01 3.495 6 4 C6 4.99 6 5.98 6 7 C0.25 5.25 0.25 5.25 -2 3 C-1.34 2.01 -0.68 1.02 0 0 Z " fill="#EBDFDE" transform="translate(135,253)"/>
<path d="M0 0 C1.60746056 0.42523816 3.21089836 0.86570126 4.8125 1.3125 C6.15248047 1.67794922 6.15248047 1.67794922 7.51953125 2.05078125 C10.07486087 3.02864755 11.33709197 3.85092617 13 6 C13 6.66 13 7.32 13 8 C11.68 7.67 10.36 7.34 9 7 C9 6.34 9 5.68 9 5 C7.35 4.67 5.7 4.34 4 4 C4 3.34 4 2.68 4 2 C2.68 2 1.36 2 0 2 C0 1.34 0 0.68 0 0 Z " fill="#FAEDEC" transform="translate(147,259)"/>
<path d="M0 0 C1.65 0 3.3 0 5 0 C4 3 4 3 1.625 4.1875 C-1 5 -1 5 -4 5 C-3.67 4.01 -3.34 3.02 -3 2 C-2.01 2 -1.02 2 0 2 C0 1.34 0 0.68 0 0 Z " fill="#F6F2F2" transform="translate(368,255)"/>
<path d="M0 0 C0.66 0.33 1.32 0.66 2 1 C1.34 5.95 0.68 10.9 0 16 C-0.33 16 -0.66 16 -1 16 C-1.02692484 13.70839681 -1.04636124 11.41670454 -1.0625 9.125 C-1.07410156 7.84882813 -1.08570313 6.57265625 -1.09765625 5.2578125 C-1 2 -1 2 0 0 Z " fill="#B93B37" transform="translate(182,216)"/>
<path d="M0 0 C3.375 0.25 3.375 0.25 7 1 C8.4375 3.0625 8.4375 3.0625 9 5 C5.26512223 4.5020163 3.18762365 4.12508244 0 2 C0 1.34 0 0.68 0 0 Z " fill="#F8F3F5" transform="translate(115,245)"/>
<path d="M0 0 C3.465 1.485 3.465 1.485 7 3 C5.3125 4.625 5.3125 4.625 3 6 C0.25 5.1875 0.25 5.1875 -2 4 C-1.34 2.68 -0.68 1.36 0 0 Z " fill="#F0DFDD" transform="translate(123,247)"/>
<path d="M0 0 C2.125 0.375 2.125 0.375 4 1 C3.34 1 2.68 1 2 1 C1.731875 1.639375 1.46375 2.27875 1.1875 2.9375 C0 5 0 5 -3 6 C-2.42655063 3.13275314 -2.1385485 2.1385485 0 0 Z " fill="#B0B0B0" transform="translate(264,129)"/>
<path d="M0 0 C0.66 0.33 1.32 0.66 2 1 C1.8125 2.875 1.8125 2.875 1 5 C-1.5625 6.25 -1.5625 6.25 -4 7 C-3.39816251 4.97954558 -2.72693904 2.97888961 -2 1 C-1.34 0.67 -0.68 0.34 0 0 Z " fill="#F4E7E5" transform="translate(390,243)"/>
<path d="M0 0 C0 0.66 0 1.32 0 2 C-4.625 4.125 -4.625 4.125 -8 3 C-4.93882432 0.37613513 -4.26826873 0 0 0 Z " fill="#F1F0EF" transform="translate(355,263)"/>
</svg>
